<?xml version="1.0" standalone="no"?><!DOCTYPE svg PUBLIC "-//W3C//DTD SVG 1.1//EN" "http://www.w3.org/Graphics/SVG/1.1/DTD/svg11.dtd"><svg class="icon" width="16px" height="16.00px" viewBox="0 0 1024 1024" version="1.1" xmlns="http://www.w3.org/2000/svg"><path d="M102.4 102.4m307.2 0l204.8 0q307.2 0 307.2 307.2l0 204.8q0 307.2-307.2 307.2l-204.8 0q-307.2 0-307.2-307.2l0-204.8q0-307.2 307.2-307.2Z" fill="#9864FF" /><path d="M409.6 322.56a20.48 20.48 0 0 1 20.48 20.48v5.12h256c45.24544 0 81.92 36.67456 81.92 81.92v194.56c0 45.24544-36.67456 81.92-81.92 81.92H337.92c-45.24544 0-81.92-36.67456-81.92-81.92V430.08c0-45.24544 36.67456-81.92 81.92-81.92h5.12v-5.12a20.48 20.48 0 0 1 20.48-20.48h46.08z m102.4 92.16c-62.208 0-112.64 50.432-112.64 112.64s50.432 112.64 112.64 112.64 112.64-50.432 112.64-112.64-50.432-112.64-112.64-112.64z m35.1744 90.89536a10.24 10.24 0 0 1-0.76288 14.464l-41.85088 37.6832a10.24 10.24 0 1 1-13.70624-15.21664l41.856-37.6832a10.24 10.24 0 0 1 14.45888 0.75264z m-28.54912-8.74496a10.24 10.24 0 0 1-0.75776 14.45888l-15.21664 13.70624a10.24 10.24 0 0 1-13.70624-15.22176l15.22176-13.70112a10.24 10.24 0 0 1 14.45888 0.75776z" fill="#FFFFFF" fill-opacity=".8" /></svg>