<?xml version="1.0" standalone="no"?><!DOCTYPE svg PUBLIC "-//W3C//DTD SVG 1.1//EN" "http://www.w3.org/Graphics/SVG/1.1/DTD/svg11.dtd"><svg class="icon" width="16px" height="16.00px" viewBox="0 0 1024 1024" version="1.1" xmlns="http://www.w3.org/2000/svg"><path d="M102.4 102.4m307.2 0l204.8 0q307.2 0 307.2 307.2l0 204.8q0 307.2-307.2 307.2l-204.8 0q-307.2 0-307.2-307.2l0-204.8q0-307.2 307.2-307.2Z" fill="#D580FF" /><path d="M483.80928 277.05344c29.42976 0 58.85952 46.05952 88.28928 138.18368 96.52224-0.83968 149.39136 12.93312 158.60736 41.32864 9.216 28.3904-25.46176 70.6304-104.0384 126.72512 29.75744 92.2368 33.00352 146.81088 9.73312 163.72736-23.26528 16.91648-74.13248-3.03616-152.59136-59.85792-77.50144 57.51808-128.36864 77.47072-152.59136 59.85792-24.22784-17.6128-20.98176-72.192 9.73312-163.72736-78.35648-56.7808-113.03936-99.0208-104.0384-126.72512C245.89824 428.8512 298.77248 415.0784 395.52 415.232c29.42976-92.12416 58.85952-138.1888 88.28928-138.1888z m303.99488 29.312a23.68 23.68 0 0 1-10.35776 31.88736L667.136 394.29632a23.79264 23.79264 0 0 1-31.96416-10.38848 23.68 23.68 0 0 1 10.35776-31.88736l110.30528-56.04352a23.79264 23.79264 0 0 1 31.96416 10.38848z m-103.90016-22.03648a23.68 23.68 0 0 1-10.36288 31.89248L605.63456 350.72a23.79264 23.79264 0 0 1-31.96416-10.38336 23.68 23.68 0 0 1 10.35776-31.89248l67.91168-34.49856a23.79264 23.79264 0 0 1 31.96416 10.38336z" fill="#FFFFFF" fill-opacity=".8" /></svg>