<?xml version="1.0" standalone="no"?><!DOCTYPE svg PUBLIC "-//W3C//DTD SVG 1.1//EN" "http://www.w3.org/Graphics/SVG/1.1/DTD/svg11.dtd"><svg class="icon" width="16px" height="16.00px" viewBox="0 0 1024 1024" version="1.1" xmlns="http://www.w3.org/2000/svg"><path d="M102.4 102.4m307.2 0l204.8 0q307.2 0 307.2 307.2l0 204.8q0 307.2-307.2 307.2l-204.8 0q-307.2 0-307.2-307.2l0-204.8q0-307.2 307.2-307.2Z" fill="#FF99DD" /><path d="M512 258.55488c57.97888 29.09184 117.72416 84.67456 179.2256 166.74304A128 128 0 0 1 716.8 502.0672V640c0 70.69184-57.30816 128-128 128H435.2c-70.69184 0-128-57.30816-128-128V501.82144a128 128 0 0 1 25.33888-76.45184C393.74336 343.17824 453.56544 287.57504 512 258.56z m0 296.96c-33.93024 0-61.44 27.50464-61.44 61.44 0 33.93024 27.50976 61.44 61.44 61.44s61.44-27.50976 61.44-61.44c0-33.93536-27.50976-61.44-61.44-61.44z" fill="#FFFFFF" fill-opacity=".8" /></svg>