<?xml version="1.0" standalone="no"?><!DOCTYPE svg PUBLIC "-//W3C//DTD SVG 1.1//EN" "http://www.w3.org/Graphics/SVG/1.1/DTD/svg11.dtd"><svg class="icon" width="16px" height="16.00px" viewBox="0 0 1024 1024" version="1.1" xmlns="http://www.w3.org/2000/svg"><path d="M102.4 102.4m307.2 0l204.8 0q307.2 0 307.2 307.2l0 204.8q0 307.2-307.2 307.2l-204.8 0q-307.2 0-307.2-307.2l0-204.8q0-307.2 307.2-307.2Z" fill="#f68c8c" /><path d="M675.84 307.2c50.89792 0 92.16 41.26208 92.16 92.16v225.28c0 50.89792-41.26208 92.16-92.16 92.16H348.16c-50.89792 0-92.16-41.26208-92.16-92.16V399.36c0-50.89792 41.26208-92.16 92.16-92.16h327.68zM435.75808 448.2816c-9.32864-6.8096-22.72256-4.6592-29.27616 4.9152L310.656 593.0496l-0.57856 0.90112c-5.53472 9.06752-2.87744 20.87936 6.22592 26.81344l0.9216 0.56832c9.2928 5.4016 21.4016 2.80576 27.48416-6.07232L427.8784 493.85984l105.40032 85.68832 0.8704 0.6656a20.86912 20.86912 0 0 0 26.33728-1.52064l48.5632-44.9792 68.03456 82.93376 0.72704 0.83456c7.19872 7.86432 19.52768 8.94464 28.0576 2.2784a19.65056 19.65056 0 0 0 3.19488-28.08832L627.10272 491.776l-0.7168-0.82944c-7.63904-8.35072-20.9408-8.98048-29.36832-1.1776l-51.52256 47.70816-108.8768-88.5248zM540.16 399.36c-15.54944 0-28.16 12.29824-28.16 27.47392 0 15.17056 12.61056 27.47392 28.16 27.47392 15.55456 0 28.16-12.30336 28.16-27.47392C568.32 411.65824 555.71456 399.36 540.16 399.36z" fill="#FFFFFF" fill-opacity=".8" /></svg>