<?xml version="1.0" standalone="no"?><!DOCTYPE svg PUBLIC "-//W3C//DTD SVG 1.1//EN" "http://www.w3.org/Graphics/SVG/1.1/DTD/svg11.dtd"><svg class="icon" width="16px" height="16.00px" viewBox="0 0 1024 1024" version="1.1" xmlns="http://www.w3.org/2000/svg"><path d="M102.4 102.4m307.2 0l204.8 0q307.2 0 307.2 307.2l0 204.8q0 307.2-307.2 307.2l-204.8 0q-307.2 0-307.2-307.2l0-204.8q0-307.2 307.2-307.2Z" fill="#ffc330" /><path d="M816.64 675.84a40.96 40.96 0 0 1-40.96 40.96h-204.8a40.96 40.96 0 0 1-40.96-40.96v-51.2a40.96 40.96 0 0 1 40.96-40.96h204.8a40.96 40.96 0 0 1 40.96 40.96v51.2z m-128-153.6a40.96 40.96 0 0 1-40.96 40.96h-76.8a40.96 40.96 0 0 1-40.96-40.96V471.04a40.96 40.96 0 0 1 40.96-40.96h76.8a40.96 40.96 0 0 1 40.96 40.96v51.2zM819.2 371.2a40.96 40.96 0 0 1-40.96 40.96H573.44a40.96 40.96 0 0 1-40.96-40.96v-51.2a40.96 40.96 0 0 1 40.96-40.96h204.8a40.96 40.96 0 0 1 40.96 40.96v51.2zM264.96 674.56a40.96 40.96 0 0 0 40.96 40.96h143.36a40.96 40.96 0 0 0 40.96-40.96v-51.2a40.96 40.96 0 0 0-40.96-40.96h-143.36a40.96 40.96 0 0 0-40.96 40.96v51.2z m-61.44-153.6a40.96 40.96 0 0 0 40.96 40.96h204.8a40.96 40.96 0 0 0 40.96-40.96v-51.2a40.96 40.96 0 0 0-40.96-40.96h-204.8a40.96 40.96 0 0 0-40.96 40.96v51.2z m94.72-151.04a40.96 40.96 0 0 0 40.96 40.96h107.52a40.96 40.96 0 0 0 40.96-40.96v-51.2a40.96 40.96 0 0 0-40.96-40.96h-107.52a40.96 40.96 0 0 0-40.96 40.96v51.2z" fill="#FFFFFF" fill-opacity=".8" /></svg>